<?xml version="1.0" standalone="no"?>
<!DOCTYPE svg PUBLIC "-//W3C//DTD SVG 20010904//EN"
 "http://www.w3.org/TR/2001/REC-SVG-20010904/DTD/svg10.dtd">
<svg version="1.0" xmlns="http://www.w3.org/2000/svg"
 width="700.000000pt" height="700.000000pt" viewBox="0 0 700.000000 700.000000"
 preserveAspectRatio="xMidYMid meet">
<metadata>
Created by potrace 1.11, written by Peter Selinger 2001-2013
</metadata>
<g transform="translate(0.000000,700.000000) scale(0.100000,-0.100000)"
fill="#000000" stroke="none">
<path d="M163 6892 l-53 -3 0 -92 c-3 -759 1 -2071 5 -2076 8 -7 2164 -8 2166
-1 1 3 2 492 3 1088 l1 1082 -75 0 c-653 3 -2008 4 -2047 2z"/>
<path d="M2453 6892 l-63 -3 0 -1083 c0 -858 3 -1085 13 -1088 6 -2 496 -4
1087 -3 l1075 0 2 1088 2 1087 -37 0 c-275 3 -2033 4 -2079 2z"/>
<path d="M4722 6892 l-52 -3 2 -1087 3 -1087 1085 0 1085 0 0 1088 0 1088
-1035 2 c-569 1 -1059 1 -1088 -1z"/>
<path d="M110 4583 c-1 -41 -1 -1942 0 -2054 l0 -97 1085 0 c597 0 1086 3
1086 6 4 19 4 2149 1 2160 -3 9 -230 12 -1088 12 l-1084 0 0 -27z"/>
<path d="M2390 3521 l0 -1090 1088 2 1087 2 2 1088 1 1087 -1089 0 -1089 0 0
-1089z"/>
<path d="M4672 3523 l3 -1088 1088 -1 1087 -2 0 1089 0 1089 -1090 0 -1090 0
2 -1087z"/>
<path d="M110 2293 c-1 -51 -1 -2058 0 -2105 l0 -38 1084 0 c858 0 1085 3
1088 13 4 10 3 2137 -1 2160 0 4 -489 7 -1086 7 l-1085 0 0 -37z"/>
<path d="M2390 1240 l0 -1090 1088 2 1087 3 1 1088 2 1087 -1089 0 -1089 0 0
-1090z"/>
<path d="M4670 1240 l0 -1090 1090 0 1090 0 0 1090 0 1090 -1090 0 -1090 0 0
-1090z"/>
</g>
</svg>
